<svg xmlns="http://www.w3.org/2000/svg" viewBox="0 0 17.275 17.405" fill="currentColor" stroke="currentColor">
  <path d="M6.22-4.023a4.612,4.612,0,0,1-.312,1.907A5.383,5.383,0,0,1,4.592-.692,8.7,8.7,0,0,0,3.429.68,2.513,2.513,0,0,0,3.01,2.089a1.925,1.925,0,0,0,.484,1.4,1.871,1.871,0,0,0,1.4.5,2.017,2.017,0,0,0,1.293-.428A1.555,1.555,0,0,0,6.75,2.3H8.927l.028.056A3.116,3.116,0,0,1,7.825,4.94,4.492,4.492,0,0,1,4.9,5.866a4.374,4.374,0,0,1-3.056-1A3.525,3.525,0,0,1,.75,2.126,3.847,3.847,0,0,1,1.429-.064a8.27,8.27,0,0,1,1.73-1.847,2.171,2.171,0,0,0,.665-.879,4.03,4.03,0,0,0,.144-1.233ZM3.931-7.865H6.238V-5.7H3.931Zm8.623,6.233a4.481,4.481,0,0,1,.307-1.9,5.53,5.53,0,0,1,1.321-1.437,8.426,8.426,0,0,0,1.154-1.354,2.533,2.533,0,0,0,.428-1.428,1.914,1.914,0,0,0-.488-1.4,1.861,1.861,0,0,0-1.391-.5,2.06,2.06,0,0,0-1.312.423,1.493,1.493,0,0,0-.54,1.251H9.857l-.028-.056a3.068,3.068,0,0,1,1.112-2.581,4.521,4.521,0,0,1,2.944-.926,4.36,4.36,0,0,1,3.047,1,3.548,3.548,0,0,1,1.093,2.763,3.829,3.829,0,0,1-.684,2.191,8.466,8.466,0,0,1-1.726,1.847,2.129,2.129,0,0,0-.665.884,4.241,4.241,0,0,0-.135,1.228Zm2.3,3.833H12.546V.033h2.307Z" transform="translate(-0.75 11.539)" fill="currentColor" stroke="none" />
</svg>
