<svg width="22" height="13" viewBox="0 0 22 13" fill="none" xmlns="http://www.w3.org/2000/svg">
<path d="M14.7274 5.6684H6.45845V7.25152H14.7274V5.6684Z" fill="black"/>
<path d="M6.19055 5.5974L0.343552 11.4444L1.46302 12.5639L7.31001 6.71687L6.19055 5.5974Z" fill="black"/>
<path d="M11.0229 9.0806C9.95137 9.07439 9.08752 9.90981 9.08054 10.959C9.07333 12.0493 9.91959 12.911 10.9989 12.9123C12.0568 12.9136 12.9104 12.0669 12.9233 11.0034C12.9361 9.95067 12.0823 9.08682 11.0229 9.0806Z" fill="#003BFF"/>
<path d="M13.6283 6.45301C13.6276 7.51396 14.4721 8.36929 15.5309 8.37979C16.5821 8.39024 17.4565 7.51171 17.455 6.44619C17.4538 5.38237 16.6025 4.53722 15.5349 4.54008C14.4664 4.54283 13.629 5.38292 13.6283 6.45301V6.45301Z" fill="#003BFF"/>
<path d="M1.90721 9.0885C0.843617 9.0896 -0.00109882 9.9358 1.07289e-06 10.9991C0.00110096 12.0522 0.861985 12.9119 1.917 12.9135C2.97773 12.9151 3.82674 12.0646 3.82691 11.0002C3.82713 9.90836 3.0027 9.08735 1.90721 9.0885Z" fill="#003BFF"/>
<path d="M8.36862 6.45536C8.36895 5.38643 7.52913 4.54221 6.46328 4.53995C5.39584 4.53775 4.54881 5.38076 4.54826 6.4459C4.54766 7.51362 5.38957 8.36042 6.45399 8.36284C7.51747 8.36521 8.36818 7.51763 8.36862 6.45536V6.45536Z" fill="#003BFF"/>
<path d="M18.1754 10.9582C18.1527 12.0191 18.9796 12.88 20.0507 12.9108C21.091 12.9406 21.9821 12.079 21.9997 11.0265C22.0169 10.0008 21.1927 9.13334 20.2053 9.08341C19.0573 9.02544 18.1807 9.92455 18.1754 10.9582Z" fill="#003BFF"/>
<path d="M11.0019 2.72432e-09C9.92816 -5.49918e-05 9.09516 0.832507 9.0945 1.90644C9.09378 2.97438 9.93652 3.82327 10.9979 3.82415C12.0567 3.82498 12.9081 2.97212 12.9088 1.91018C12.9095 0.839381 12.0717 0.000109992 11.0019 2.72432e-09Z" fill="#003BFF"/>
<path d="M1.90722 9.0885C3.00265 9.08735 3.82713 9.90836 3.82697 11.0001C3.82675 12.0645 2.97774 12.9151 1.91706 12.9135C0.861992 12.9119 0.00116211 12.0522 6.22179e-05 10.999C-0.00109267 9.93575 0.843623 9.0896 1.90722 9.0885V9.0885Z" fill="#003BFF"/>
<path d="M8.36862 6.45536C8.36818 7.51763 7.51742 8.36521 6.45399 8.36284C5.38957 8.36042 4.54766 7.51362 4.54826 6.4459C4.54881 5.38076 5.39584 4.53775 6.46328 4.53995C7.52919 4.54221 8.36901 5.38643 8.36862 6.45536V6.45536Z" fill="#003BFF"/>
<path d="M18.1754 10.9582C18.1807 9.92453 19.0573 9.02542 20.2053 9.08344C21.1927 9.13332 22.0168 10.0007 21.9997 11.0265C21.9821 12.079 21.091 12.9406 20.0507 12.9108C18.9796 12.88 18.1527 12.0191 18.1754 10.9582Z" fill="#003BFF"/>
<path d="M11.0019 2.72414e-09C12.0717 0.000109992 12.9095 0.839326 12.9088 1.91012C12.9081 2.97207 12.0567 3.82492 10.9979 3.8241C9.93646 3.82327 9.09378 2.97432 9.0945 1.90639C9.09516 0.832562 9.92816 -5.49918e-05 11.0019 2.72414e-09Z" fill="#003BFF"/>
<path d="M11.0229 9.0806C12.0823 9.08676 12.936 9.95067 12.9233 11.0033C12.9104 12.0668 12.0568 12.9136 10.9989 12.9123C9.91964 12.911 9.07333 12.0493 9.08054 10.9589C9.08752 9.90986 9.95137 9.07444 11.0229 9.0806Z" fill="#003BFF"/>
<path d="M13.6283 6.45301C13.629 5.38292 14.4663 4.54288 15.5349 4.54008C16.6025 4.53722 17.4538 5.38237 17.455 6.44619C17.4565 7.51171 16.5821 8.39024 15.5309 8.37979C14.4721 8.36929 13.6276 7.51396 13.6283 6.45301V6.45301Z" fill="#003BFF"/>
</svg>
